<?xml version="1.0" encoding="UTF-8"?>
<svg version="1.1" xmlns="http://www.w3.org/2000/svg" width="500" height="150">
<path d="M0 0 C0.74507812 0.40734375 1.49015625 0.8146875 2.2578125 1.234375 C7.70079563 4.39481682 7.70079563 4.39481682 9.03515625 7.09375 C9.90019881 9.35763809 9.90019881 9.35763809 13 10 C20.03489119 18.39648303 21.95672661 29.35311681 21.43359375 40.0390625 C20.15823716 51.68961731 14.90838384 60.46308718 6 68 C-2.73310894 73.59728218 -12.52093032 77.31188353 -23 76 C-33.39518565 73.54961602 -44.2417545 69.82402037 -50.6015625 60.703125 C-57.11193253 50.11976485 -60.88405686 39.95434766 -58.50390625 27.37890625 C-55.42645257 16.23400337 -49.43250314 6.40166973 -39.2890625 0.39453125 C-26.35074749 -5.78469203 -12.88535501 -7.29359718 0 0 Z M-41 8 C-40.27296875 8.30292969 -39.5459375 8.60585938 -38.796875 8.91796875 C-36.67298442 9.80292316 -34.54930252 10.6883785 -32.42578125 11.57421875 C-30.25806618 12.47640347 -28.08896387 13.37526837 -25.91796875 14.26953125 C-23.92292194 15.09317443 -21.93456567 15.93320462 -19.953125 16.7890625 C-17.03293066 18.04035152 -17.03293066 18.04035152 -14.046875 18.8984375 C-8.53389049 20.7812874 -5.67548311 22.73116714 -3.00219727 28.04760742 C-1.53294505 31.31774658 -0.24435776 34.63890849 1 38 C1.47179687 39.20785156 1.94359375 40.41570312 2.4296875 41.66015625 C3.2594485 43.79838651 4.07199763 45.9434583 4.859375 48.09765625 C6.0664548 51.1690956 7.48487868 54.06989469 9 57 C14.52455911 52.10217659 16.29366194 45.61238752 17.390625 38.44921875 C17.84525173 28.528614 14.50112027 18.46129132 8.05078125 10.93359375 C4.43333939 7.52286286 0.43589889 5.19682612 -4 3 C-4.97066406 2.48953125 -4.97066406 2.48953125 -5.9609375 1.96875 C-16.45434274 -2.81305492 -33.24769153 -1.11564547 -41 8 Z M-45 11 C-48.23661766 14.43890626 -49.61518636 17.53644889 -51 22 C-49.52473958 22.53645833 -48.04947917 23.07291667 -46.57421875 23.609375 C-34.88671875 27.859375 -34.88671875 27.859375 -31.95947266 28.94018555 C-29.95692269 29.65731716 -27.9398668 30.33496857 -25.91162109 30.97583008 C-18.48466134 33.39023299 -18.48466134 33.39023299 -16.078125 36.41796875 C-15.80484375 37.33191406 -15.5315625 38.24585937 -15.25 39.1875 C-14.899375 40.23421875 -14.54875 41.2809375 -14.1875 42.359375 C-13.5996875 44.16148438 -13.5996875 44.16148438 -13 46 C-11.79517892 48.99836155 -10.51896319 51.96580844 -9.25 54.9375 C-7.4143607 59.25878022 -5.6958687 63.3211986 -5 68 C-0.32894208 66.44298069 3.08705685 63.91552627 7 61 C6.01 60.505 6.01 60.505 5 60 C4.30020313 58.68375285 3.63745964 57.34754126 3 56 C2.23734073 54.79406881 1.45120689 53.60272373 0.64453125 52.42578125 C0.19110352 51.76280029 -0.26232422 51.09981934 -0.72949219 50.41674805 C-2.70523025 47.56529354 -4.69106992 44.72113783 -6.68701172 41.88378906 C-7.73252513 40.38375531 -8.74847097 38.86312427 -9.75390625 37.3359375 C-16.41754806 27.76673907 -27.51883913 21.46118494 -37.16796875 15.21875 C-39 14 -39 14 -41.11328125 12.34375 C-42.88545558 10.80662634 -42.88545558 10.80662634 -45 11 Z M-53 25 C-53.36708396 26.39249204 -53.71806563 27.78923333 -54.0625 29.1875 C-54.25972656 29.96480469 -54.45695312 30.74210937 -54.66015625 31.54296875 C-55.04001568 34.28930876 -54.59706999 36.31220625 -54 39 C-50.23073331 40.00597015 -46.45934588 41.00374802 -42.6875 42 C-41.0797168 42.42925781 -41.0797168 42.42925781 -39.43945312 42.8671875 C-37.89741211 43.27324219 -37.89741211 43.27324219 -36.32421875 43.6875 C-35.37635498 43.93886719 -34.42849121 44.19023438 -33.4519043 44.44921875 C-30.93099111 45.10958618 -30.93099111 45.10958618 -28 45 C-27.80664062 46.03898437 -27.61328125 47.07796875 -27.4140625 48.1484375 C-25.99126611 55.7757241 -24.55330344 63.3979502 -23 71 C-21.25008666 71.02715383 -19.50005055 71.04646551 -17.75 71.0625 C-16.77546875 71.07410156 -15.8009375 71.08570313 -14.796875 71.09765625 C-12.34241322 71.01195577 -10.33831086 70.70706066 -8 70 C-8.66 68.02 -9.32 66.04 -10 64 C-10.66 64 -11.32 64 -12 64 C-12.27457031 63.42636719 -12.54914063 62.85273437 -12.83203125 62.26171875 C-13.99800434 60.00386451 -15.28094704 57.9281098 -16.6875 55.8125 C-17.37392578 54.77029297 -17.37392578 54.77029297 -18.07421875 53.70703125 C-18.70972656 52.81371094 -19.34523437 51.92039062 -20 51 C-20.47252197 50.31768311 -20.94504395 49.63536621 -21.43188477 48.93237305 C-25.74687231 42.99714567 -30.41676336 39.13177874 -36.5625 35.1875 C-37.7990332 34.36862305 -37.7990332 34.36862305 -39.06054688 33.53320312 C-40.64916511 32.48301345 -42.24221913 31.43949263 -43.84033203 30.40380859 C-45.75151102 29.16152065 -47.64170696 27.89380465 -49.52734375 26.61328125 C-51.64751643 24.90892847 -51.64751643 24.90892847 -53 25 Z M-53 44 C-51.37319009 53.67612978 -45.85617115 60.36487885 -38 66 C-35.10043702 67.64143223 -32.22751033 69.13341689 -29 70 C-28.34 69.67 -27.68 69.34 -27 69 C-33.7498376 58.06798637 -40.20442414 48.26519195 -53 44 Z " fill="#DADADA" transform="translate(112,29)"/>
<path d="M0 0 C7.85302026 0.9095306 15.77519118 0.48833531 23.6640625 0.3046875 C24.87578125 0.29050781 26.0875 0.27632813 27.3359375 0.26171875 C28.98432617 0.22860596 28.98432617 0.22860596 30.66601562 0.19482422 C31.9721582 0.3555542 31.9721582 0.3555542 33.3046875 0.51953125 C33.9646875 1.50953125 34.6246875 2.49953125 35.3046875 3.51953125 C35.6346875 2.52953125 35.9646875 1.53953125 36.3046875 0.51953125 C37.41328125 0.53113281 38.521875 0.54273437 39.6640625 0.5546875 C41.12760248 0.56406917 42.59114428 0.57316896 44.0546875 0.58203125 C44.78429687 0.59041016 45.51390625 0.59878906 46.265625 0.60742188 C50.3146354 0.65494072 50.3146354 0.65494072 54.29492188 0.02172852 C56.39091619 -0.50201545 58.19480207 -0.60971551 60.3515625 -0.61328125 C61.49625 -0.61521484 61.49625 -0.61521484 62.6640625 -0.6171875 C63.84742187 -0.61138672 63.84742187 -0.61138672 65.0546875 -0.60546875 C66.21484375 -0.61126953 66.21484375 -0.61126953 67.3984375 -0.6171875 C72.44910683 -0.60871322 77.33452254 -0.42195374 82.3046875 0.51953125 C84.54247055 3.73634439 85.3046875 5.60620123 85.3046875 9.51953125 C81.6746875 9.51953125 78.0446875 9.51953125 74.3046875 9.51953125 C74.3253125 10.63328125 74.3459375 11.74703125 74.3671875 12.89453125 C74.3046875 16.51953125 74.3046875 16.51953125 73.3046875 18.51953125 C68.3546875 17.52953125 68.3546875 17.52953125 63.3046875 16.51953125 C63.3046875 17.17953125 63.3046875 17.83953125 63.3046875 18.51953125 C62.07274658 18.35582031 60.84080566 18.19210938 59.5715332 18.0234375 C53.7205911 17.37677806 47.91526758 17.41255426 42.03515625 17.45703125 C40.87776443 17.46081787 39.72037262 17.46460449 38.52790833 17.46850586 C33.61418186 17.4847279 28.70054126 17.51284339 23.78686523 17.54003906 C20.18213291 17.55825568 16.57741452 17.57026679 12.97265625 17.58203125 C11.88164108 17.59032959 10.79062592 17.59862793 9.66654968 17.60717773 C2.49586887 17.62971117 -4.56006944 17.22843509 -11.6953125 16.51953125 C-11.6953125 14.20953125 -11.6953125 11.89953125 -11.6953125 9.51953125 C-12.40558594 9.53113281 -13.11585937 9.54273437 -13.84765625 9.5546875 C-14.76675781 9.56371094 -15.68585937 9.57273437 -16.6328125 9.58203125 C-17.54933594 9.59363281 -18.46585938 9.60523437 -19.41015625 9.6171875 C-21.6953125 9.51953125 -21.6953125 9.51953125 -22.6953125 8.51953125 C-22.83646411 5.84894274 -22.73778357 3.19520887 -22.6953125 0.51953125 C-19.90404414 0.32189242 -17.11277643 0.13626229 -14.3203125 -0.04296875 C-13.54558594 -0.09904297 -12.77085938 -0.15511719 -11.97265625 -0.21289062 C-7.90517302 -0.46500735 -4.05026635 -0.47856173 0 0 Z M-18.6953125 3.51953125 C-17.6953125 5.51953125 -17.6953125 5.51953125 -17.6953125 5.51953125 Z M54.3046875 3.51953125 C55.3046875 5.51953125 55.3046875 5.51953125 55.3046875 5.51953125 Z M-10.6953125 7.51953125 C-9.6953125 9.51953125 -9.6953125 9.51953125 -9.6953125 9.51953125 Z M2.3046875 7.51953125 C1.9746875 8.17953125 1.6446875 8.83953125 1.3046875 9.51953125 C1.9646875 9.51953125 2.6246875 9.51953125 3.3046875 9.51953125 C2.9746875 8.85953125 2.6446875 8.19953125 2.3046875 7.51953125 Z M25.3046875 7.51953125 C26.3046875 9.51953125 26.3046875 9.51953125 26.3046875 9.51953125 Z M31.3046875 7.51953125 C30.9746875 8.17953125 30.6446875 8.83953125 30.3046875 9.51953125 C30.9646875 9.51953125 31.6246875 9.51953125 32.3046875 9.51953125 C31.9746875 8.85953125 31.6446875 8.19953125 31.3046875 7.51953125 Z M60.3046875 7.51953125 C61.3046875 9.51953125 61.3046875 9.51953125 61.3046875 9.51953125 Z M18.3046875 8.51953125 C18.6346875 9.17953125 18.9646875 9.83953125 19.3046875 10.51953125 C19.6346875 9.85953125 19.9646875 9.19953125 20.3046875 8.51953125 C19.6446875 8.51953125 18.9846875 8.51953125 18.3046875 8.51953125 Z M23.3046875 9.51953125 C23.6346875 10.83953125 23.9646875 12.15953125 24.3046875 13.51953125 C24.6346875 12.19953125 24.9646875 10.87953125 25.3046875 9.51953125 C24.6446875 9.51953125 23.9846875 9.51953125 23.3046875 9.51953125 Z M67.3046875 9.51953125 C67.6346875 10.17953125 67.9646875 10.83953125 68.3046875 11.51953125 C68.9646875 10.85953125 69.6246875 10.19953125 70.3046875 9.51953125 C69.3146875 9.51953125 68.3246875 9.51953125 67.3046875 9.51953125 Z " fill="#F7F7F7" transform="translate(61.6953125,109.48046875)"/>
<path d="M0 0 C7.17988943 1.25962972 13.64744193 3.69644645 20.33203125 6.515625 C23.84969071 8.01485602 23.84969071 8.01485602 27.01171875 8.859375 C30.8821446 9.99331142 33.2605733 10.83692299 35.47265625 14.31640625 C36.81936915 17.49915217 37.89658159 20.72488548 39 24 C39.60432764 25.46889847 40.22229291 26.93223739 40.8515625 28.390625 C41.33749878 29.5194812 41.33749878 29.5194812 41.83325195 30.67114258 C42.47503452 32.15647482 43.11931448 33.64073103 43.76635742 35.1237793 C45.34862568 38.89139888 46.41643338 41.82750085 46 46 C47.6396875 44.9790625 47.6396875 44.9790625 49.3125 43.9375 C51.17578125 42.77734375 51.17578125 42.77734375 53 42 C53.99 42.33 54.98 42.66 56 43 C55.06161264 46.4311587 54.48246875 47.71778785 51.35546875 49.546875 C50.31003906 49.94390625 49.26460937 50.3409375 48.1875 50.75 C47.14980469 51.15734375 46.11210938 51.5646875 45.04296875 51.984375 C33.69434107 55.77210696 23.64568386 53.89599039 12.82421875 49.01953125 C8.79869046 46.83271433 5.26634233 44.18667545 2 41 C2 39.68 2 38.36 2 37 C3.485 36.505 3.485 36.505 5 36 C6.7265625 37.29296875 6.7265625 37.29296875 8.625 39.1875 C12.70477652 42.97911386 16.81475929 45.06753761 22 47 C21.03577755 44.10733266 19.92250179 42.15099497 18.25 39.625 C17.76015625 38.87476563 17.2703125 38.12453125 16.765625 37.3515625 C13.07167172 32.43173977 8.82722412 29.01984861 3.6875 25.6875 C2.61886719 24.99011719 1.55023438 24.29273437 0.44921875 23.57421875 C-0.35902344 23.05472656 -1.16726562 22.53523438 -2 22 C-2 22.99 -2 23.98 -2 25 C-2.99 25 -3.98 25 -5 25 C-5.33 23.35 -5.66 21.7 -6 20 C-4.68 20.33 -3.36 20.66 -2 21 C-2.33 19.68 -2.66 18.36 -3 17 C3.06370342 17.60497958 8.65514242 18.8633028 14.5 20.5625 C15.32242188 20.79646484 16.14484375 21.03042969 16.9921875 21.27148438 C18.99629058 21.84242072 20.99836591 22.42046705 23 23 C27.22323462 39.70842825 27.22323462 39.70842825 29 48 C33.62 48 38.24 48 43 48 C42.34 46.02 41.68 44.04 41 42 C40.34 42 39.68 42 39 42 C37.49789089 40.02923285 36.11256135 38.06434881 34.75 36 C33.59814492 34.27823752 32.44068058 32.5612497 31.26953125 30.85253906 C30.39915514 29.58245946 29.54302662 28.30253237 28.69921875 27.01464844 C24.80463973 21.37618758 20.21910914 17.94118242 14.5 14.25 C13.25669922 13.42435547 13.25669922 13.42435547 11.98828125 12.58203125 C9.66643581 11.04274739 7.33414271 9.5205392 5 8 C2.99652264 6.67178373 0.99805749 5.33636313 -1 4 C-0.67 2.68 -0.34 1.36 0 0 Z " fill="#E9E9E9" transform="translate(61,51)"/>
<path d="M0 0 C2.97 0 5.94 0 9 0 C10.72752788 4.68276517 12.45358349 9.3660532 14.17578125 14.05078125 C15.2260737 16.90621313 16.2848043 19.75756303 17.35546875 22.60546875 C17.89107422 24.03826172 17.89107422 24.03826172 18.4375 25.5 C18.74558594 26.3146875 19.05367188 27.129375 19.37109375 27.96875 C20 30 20 30 20 33 C17.36 33 14.72 33 12 33 C11.34 30.69 10.68 28.38 10 26 C6.37 26 2.74 26 -1 26 C-1.66 28.31 -2.32 30.62 -3 33 C-14.15370268 34.32559011 -14.15370268 34.32559011 -19 33 C-21.76353274 30.34803846 -23.12704622 27.96033646 -24.73828125 24.50390625 C-25.7938447 21.67710702 -25.7938447 21.67710702 -29 21 C-29 24.96 -29 28.92 -29 33 C-31.31 33 -33.62 33 -36 33 C-36 22.44 -36 11.88 -36 1 C-20 1 -20 1 -15 4 C-13.27382906 7.45234188 -13.49889564 11.22544766 -14 15 C-16 18.0625 -16 18.0625 -18 20 C-17.04737966 21.48285242 -16.08771595 22.96118201 -15.125 24.4375 C-14.32449219 25.67306641 -14.32449219 25.67306641 -13.5078125 26.93359375 C-12.16165694 29.11038871 -12.16165694 29.11038871 -10 30 C-9.87761963 29.29786377 -9.75523926 28.59572754 -9.62915039 27.87231445 C-8.95801726 24.80833258 -8.00659595 21.98994663 -6.93359375 19.04296875 C-6.53076172 17.93115234 -6.12792969 16.81933594 -5.71289062 15.67382812 C-5.29201172 14.52333984 -4.87113281 13.37285156 -4.4375 12.1875 C-4.01275391 11.01767578 -3.58800781 9.84785156 -3.15039062 8.64257812 C-2.10344692 5.76054207 -1.05321116 2.87975032 0 0 Z M-29 7 C-29 9.64 -29 12.28 -29 15 C-26.05908413 14.81584568 -26.05908413 14.81584568 -23 14 C-21.56362302 12.04836882 -21.56362302 12.04836882 -21 10 C-22.18523997 8.39585785 -22.18523997 8.39585785 -24 7 C-26.62570704 6.74930087 -26.62570704 6.74930087 -29 7 Z M4 8 C2.515 13.445 2.515 13.445 1 19 C3.31 19 5.62 19 8 19 C7.01 15.37 6.02 11.74 5 8 C4.67 8 4.34 8 4 8 Z " fill="#E6E6E6" transform="translate(430,34)"/>
<path d="M0 0 C10 0 10 0 12.14501953 1.74414062 C12.75772705 2.93813477 12.75772705 2.93813477 13.3828125 4.15625 C13.846875 5.01347656 14.3109375 5.87070312 14.7890625 6.75390625 C15.22992188 7.66011719 15.67078125 8.56632812 16.125 9.5 C16.60453125 10.40621094 17.0840625 11.31242187 17.578125 12.24609375 C18.75355924 14.47941881 19.88155614 16.73759646 21 19 C21.33 12.73 21.66 6.46 22 0 C24.31 0 26.62 0 29 0 C29 10.56 29 21.12 29 32 C19 32 19 32 16.85498047 30.25585938 C16.44650879 29.45986328 16.03803711 28.66386719 15.6171875 27.84375 C15.153125 26.98652344 14.6890625 26.12929688 14.2109375 25.24609375 C13.77007812 24.33988281 13.32921875 23.43367188 12.875 22.5 C12.39546875 21.59378906 11.9159375 20.68757813 11.421875 19.75390625 C10.24644076 17.52058119 9.11844386 15.26240354 8 13 C7.67 19.27 7.34 25.54 7 32 C4.69 32 2.38 32 0 32 C0 21.44 0 10.88 0 0 Z " fill="#E6E6E6" transform="translate(302,35)"/>
<path d="M0 0 C2.64 0 5.28 0 8 0 C10.64 4.62 13.28 9.24 16 14 C16.33 9.38 16.66 4.76 17 0 C19.31 0 21.62 0 24 0 C25 1 25 1 25.11352539 3.86743164 C25.10828857 5.11903076 25.10305176 6.37062988 25.09765625 7.66015625 C25.0962413 8.32462265 25.09482635 8.98908905 25.09336853 9.6736908 C25.08775518 11.80333899 25.07520054 13.93288339 25.0625 16.0625 C25.05748671 17.50325369 25.05292351 18.94400903 25.04882812 20.38476562 C25.03778145 23.92321102 25.02050792 27.46159539 25 31 C22.03 31 19.06 31 16 31 C13.69 26.38 11.38 21.76 9 17 C8.67 21.62 8.34 26.24 8 31 C5.36 31 2.72 31 0 31 C0 20.77 0 10.54 0 0 Z M7 13 C8 15 8 15 8 15 Z M17 17 C18 19 18 19 18 19 Z " fill="#DFDFDF" transform="translate(300,83)"/>
<path d="M0 0 C5.64408314 0.37627221 9.87235295 2.17345873 14.953125 4.6015625 C19.23457801 6.56663965 23.632805 8.17024065 28.0546875 9.7890625 C34.27369752 12.34594991 36.86114604 14.67548992 39.5 20.875 C39.79406738 21.53757812 40.08813477 22.20015625 40.39111328 22.8828125 C41.28197738 24.91353697 42.14548592 26.95374219 43 29 C43.50273438 30.19882813 44.00546875 31.39765625 44.5234375 32.6328125 C48.73938322 43.13612235 48.73938322 43.13612235 49 49 C48.505 49.99 48.505 49.99 48 51 C47.34 51 46.68 51 46 51 C44.39043045 48.97054275 42.90530961 46.94150515 41.4375 44.8125 C40.99349854 44.18335693 40.54949707 43.55421387 40.09204102 42.90600586 C37.8927352 39.77849524 35.74233004 36.62600822 33.65625 33.421875 C29.16936235 26.57910128 24.86286764 21.49151074 18 17 C16.07108884 15.7366288 14.1428651 14.47230239 12.21728516 13.20385742 C10.89448024 12.33784502 9.56496097 11.48197666 8.22802734 10.63793945 C4.40355441 8.17023195 1.66795606 5.7768043 -1 2 C-0.67 1.34 -0.34 0.68 0 0 Z " fill="#EDEDED" transform="translate(71,38)"/>
<path d="M0 0 C2.64 0 5.28 0 8 0 C10.64 4.95 13.28 9.9 16 15 C16.33 10.05 16.66 5.1 17 0 C19.31 0 21.62 0 24 0 C24 10.23 24 20.46 24 31 C21.36 31 18.72 31 16 31 C13.36 26.05 10.72 21.1 8 16 C7.67 20.95 7.34 25.9 7 31 C4.69 31 2.38 31 0 31 C0 20.77 0 10.54 0 0 Z " fill="#F0F0F0" transform="translate(186,83)"/>
<path d="M0 0 C-0.33 1.65 -0.66 3.3 -1 5 C-3.79059092 5.93019697 -6.10435047 5.96916761 -9 5.8125 C-12.03059259 5.78428219 -12.81473805 5.87649204 -15.4375 7.625 C-17.37069834 10.56346147 -17.85937024 12.48425594 -18 16 C-17.02216355 20.23729127 -16.67950002 21.54699998 -13 24 C-11.0103005 24.39013716 -9.00980131 24.73202649 -7 25 C-7 23.02 -7 21.04 -7 19 C-8.98 19 -10.96 19 -13 19 C-13 16.69 -13 14.38 -13 12 C-8.71 12 -4.42 12 0 12 C0 17.94 0 23.88 0 30 C-6.01594182 32.00531394 -14.68556224 32.6314055 -20.5078125 29.765625 C-23.4114601 27.31149607 -24.78611226 25.64166321 -26 22 C-27.01639954 8.58685851 -27.01639954 8.58685851 -24.25 4.3125 C-17.67981761 -2.44018745 -8.72815213 -4.50485271 0 0 Z " fill="#EBEBEB" transform="translate(265,36)"/>
<path d="M0 0 C2.68125 -0.0825 5.3625 -0.165 8.125 -0.25 C8.95789551 -0.28641602 9.79079102 -0.32283203 10.64892578 -0.36035156 C15.91684456 -0.43828307 18.80836571 0.5443015 23 4 C26.29547146 7.6363823 26.87972926 10.43648039 27.25 15.25 C26.95801036 19.62984453 26.23384296 23.19419347 24 27 C15.89068173 33.58882109 11.74354513 32 0 32 C0 21.44 0 10.88 0 0 Z M7 6 C7 12.6 7 19.2 7 26 C15.43503059 25.00930679 15.43503059 25.00930679 18.0625 21.8125 C19.46725121 17.59824638 19.62743133 13.93457994 18.25 9.6875 C16.65294576 7.53147678 15.55040714 6.85013571 13 6 C11.02 6 9.04 6 7 6 Z " fill="#F1F1F1" transform="translate(164,35)"/>
<path d="M0 0 C4.15034084 1.75236613 6.73241384 4.11270944 9 8 C10.54805114 14.70822161 10.65150705 20.99907369 7 27 C4.27076929 29.95666661 2.51993719 30.86520147 -1.375 31.875 C-5.96778472 32.03337189 -9.95484616 31.84485526 -13.515625 28.6328125 C-17.97394081 23.48268907 -18.29720533 19.26566409 -18.2109375 12.7265625 C-17.81613147 7.62332894 -16.10865427 5.00306815 -12.375 1.625 C-8.06375504 -0.45078461 -4.7023141 -0.7140551 0 0 Z M-8.8125 8.4375 C-10.59166576 12.27675243 -10.70259208 15.84361317 -10 20 C-8.18409021 23.02690443 -8.18409021 23.02690443 -6 25 C-2.77510528 24.73852205 -1.3699282 24.39459008 0.875 22 C2.41489902 17.8936026 2.24377933 14.20365926 1 10 C-0.85076036 7.68913441 -1.53877048 7.08071517 -4.5 6.5625 C-7.04836725 6.80361332 -7.04836725 6.80361332 -8.8125 8.4375 Z " fill="#EAEAEA" transform="translate(278,83)"/>
<path d="M0 0 C2.1640625 -0.29296875 2.1640625 -0.29296875 4.625 -0.1875 C5.44226563 -0.16042969 6.25953125 -0.13335937 7.1015625 -0.10546875 C8.04128906 -0.05326172 8.04128906 -0.05326172 9 0 C10.57058493 4.37682832 12.13705846 8.75509751 13.69970703 13.13476562 C14.23210143 14.62508016 14.76562555 16.11499161 15.30029297 17.60449219 C16.06774099 19.74309502 16.83114081 21.88310517 17.59375 24.0234375 C17.83436157 24.69120209 18.07497314 25.35896667 18.32287598 26.04696655 C20 30.77225659 20 30.77225659 20 33 C17.03 33 14.06 33 11 33 C10.67 30.69 10.34 28.38 10 26 C6.04 26 2.08 26 -2 26 C-2.33 28.31 -2.66 30.62 -3 33 C-5.97 33 -8.94 33 -12 33 C-10.61825683 28.78054461 -9.2305805 24.56310172 -7.83740234 20.34741211 C-7.36441619 18.91337904 -6.89304791 17.4788113 -6.42333984 16.04370117 C-5.74742733 13.97952437 -5.0656962 11.9173482 -4.3828125 9.85546875 C-3.97434082 8.61434326 -3.56586914 7.37321777 -3.14501953 6.09448242 C-2 3 -2 3 0 0 Z M3 10 C2.34 12.97 1.68 15.94 1 19 C2.98 19 4.96 19 7 19 C6.34 16.03 5.68 13.06 5 10 C4.34 10 3.68 10 3 10 Z " fill="#E6E6E6" transform="translate(371,34)"/>
<path d="M0 0 C2.701875 -0.0825 5.40375 -0.165 8.1875 -0.25 C9.02949951 -0.28641602 9.87149902 -0.32283203 10.73901367 -0.36035156 C14.63753114 -0.41781218 16.58113925 -0.25645652 19.9921875 1.83203125 C22.55457102 4.59880723 22.92353524 6.25322676 23 10 C21.97197635 13.59808279 20.25687642 16.06110049 18 19 C18.5775 19.77085938 19.155 20.54171875 19.75 21.3359375 C20.4925 22.33882812 21.235 23.34171875 22 24.375 C23.11375 25.87160156 23.11375 25.87160156 24.25 27.3984375 C26 30 26 30 26 32 C22.78029342 32.72279127 20.18798644 32.94271141 17 32 C14.72520895 29.32224597 13.14835122 26.60666425 11.5078125 23.50390625 C10.19025516 20.70254484 10.19025516 20.70254484 7 20 C7 23.96 7 27.92 7 32 C4.69 32 2.38 32 0 32 C0 21.44 0 10.88 0 0 Z M7 6 C7 8.64 7 11.28 7 14 C11.47883696 13.55296014 11.47883696 13.55296014 15 11 C14.6814823 8.89179203 14.6814823 8.89179203 14 7 C11.69 6.67 9.38 6.34 7 6 Z " fill="#F1F1F1" transform="translate(211,35)"/>
<path d="M0 0 C2.97 0 5.94 0 9 0 C10.72752788 4.68276517 12.45358349 9.3660532 14.17578125 14.05078125 C15.2260737 16.90621313 16.2848043 19.75756303 17.35546875 22.60546875 C17.89107422 24.03826172 17.89107422 24.03826172 18.4375 25.5 C18.74558594 26.3146875 19.05367188 27.129375 19.37109375 27.96875 C20 30 20 30 20 33 C17.36 33 14.72 33 12 33 C11.34 30.69 10.68 28.38 10 26 C6.37 26 2.74 26 -1 26 C-1.66 28.31 -2.32 30.62 -3 33 C-5.64 33 -8.28 33 -11 33 C-10.39092779 28.5762124 -9.28583066 24.68385366 -7.71484375 20.5078125 C-7.04291992 18.70957031 -7.04291992 18.70957031 -6.35742188 16.875 C-5.88423277 15.62495526 -5.410924 14.3749558 -4.9375 13.125 C-4.45978804 11.85174939 -3.98256966 10.57831348 -3.50585938 9.3046875 C-2.34207756 6.20126933 -1.17331032 3.09982553 0 0 Z M4 8 C2.515 13.445 2.515 13.445 1 19 C3.31 19 5.62 19 8 19 C7.01 15.37 6.02 11.74 5 8 C4.67 8 4.34 8 4 8 Z " fill="#E8E8E8" transform="translate(279,34)"/>
<path d="M0 0 C16.76315789 0 16.76315789 0 22.5625 5.375 C24.75652164 10.90775022 24.73187471 16.13006612 24 22 C21.46791245 27.648503 19.84212491 28.07893755 14 31 C9.38 31 4.76 31 0 31 C0 20.77 0 10.54 0 0 Z M8 7 C8 12.94 8 18.88 8 25 C13.7018576 23.59628479 13.7018576 23.59628479 16 21 C16.99943152 17.00227391 17.18219649 14.57874181 15.9375 10.625 C13.93432369 7.2737224 13.93432369 7.2737224 8 7 Z " fill="#E4E4E4" transform="translate(224,83)"/>
<path d="M0 0 C16 0 16 0 21 3 C22.14273574 5.28547148 22.23127257 6.76879905 22.3125 9.3125 C22.34988281 10.07175781 22.38726562 10.83101562 22.42578125 11.61328125 C21.84506504 14.86848861 20.17437078 16.57688463 18 19 C18.5053125 19.78246094 19.010625 20.56492187 19.53125 21.37109375 C20.1809375 22.38300781 20.830625 23.39492188 21.5 24.4375 C22.1496875 25.44683594 22.799375 26.45617187 23.46875 27.49609375 C25 30 25 30 25 31 C19.98052498 31.88060965 19.98052498 31.88060965 17 31 C14.80949216 28.58095492 13.20419889 26.09070169 11.54296875 23.28515625 C10.14103488 20.70852404 10.14103488 20.70852404 7 20 C7 23.96 7 27.92 7 32 C4.69 32 2.38 32 0 32 C0 21.44 0 10.88 0 0 Z M7 6 C7 8.64 7 11.28 7 14 C9.94091587 13.81584568 9.94091587 13.81584568 13 13 C14.43637698 11.04836882 14.43637698 11.04836882 15 9 C13.81476003 7.39585785 13.81476003 7.39585785 12 6 C9.37429296 5.74930087 9.37429296 5.74930087 7 6 Z " fill="#F3F3F3" transform="translate(394,35)"/>
<path d="M0 0 C2.97 0 5.94 0 9 0 C11.9305957 6.28500062 13.79410276 12.77701077 15.6875 19.4375 C16.00783203 20.55060547 16.32816406 21.66371094 16.65820312 22.81054688 C17.44284673 25.53923285 18.22332198 28.26903818 19 31 C16.03 31 13.06 31 10 31 C9.67 28.69 9.34 26.38 9 24 C5.04 24.495 5.04 24.495 1 25 C0.34 26.98 -0.32 28.96 -1 31 C-3.64 31 -6.28 31 -9 31 C-6.60471932 20.47337177 -3.31780699 10.26480091 0 0 Z M4 9 C3.34 11.97 2.68 14.94 2 18 C3.65 18 5.3 18 7 18 C6.34 15.03 5.68 12.06 5 9 C4.67 9 4.34 9 4 9 Z " fill="#E5E5E5" transform="translate(432,83)"/>
<path d="M0 0 C6.27 0 12.54 0 19 0 C19 2.31 19 4.62 19 7 C15.04 7 11.08 7 7 7 C7 8.65 7 10.3 7 12 C10.3 12 13.6 12 17 12 C17 14.31 17 16.62 17 19 C13.7 19 10.4 19 7 19 C7 20.65 7 22.3 7 24 C11.29 24 15.58 24 20 24 C20 26.31 20 28.62 20 31 C13.4 31 6.8 31 0 31 C0 20.77 0 10.54 0 0 Z " fill="#E9E9E9" transform="translate(339,83)"/>
<path d="M0 0 C1.2375 0.7425 1.2375 0.7425 2.5 1.5 C1.6875 3.9375 1.6875 3.9375 0.5 6.5 C-3.75061356 7.91687119 -6.21851625 6.69320039 -10.5 5.5 C-9.82522652 8.63540548 -9.82522652 8.63540548 -7.3203125 9.74609375 C-5.52875746 10.53801301 -3.73709143 11.32968119 -1.9453125 12.12109375 C0.74309138 13.63707869 1.98838658 14.82214179 3.5 17.5 C3.5 22.20361293 3.4713261 24.38583183 0.375 27.9375 C-4.76815162 30.7326911 -8.83120954 30.91403947 -14.375 29.3125 C-16.6796875 28.58203125 -16.6796875 28.58203125 -18.5 27.5 C-19.33203125 25.5 -19.33203125 25.5 -19.5 23.5 C-18.3125 21.6875 -18.3125 21.6875 -16.5 20.5 C-14.6875 20.75 -14.6875 20.75 -12.5 21.5 C-10.50211562 21.84578768 -8.50240549 22.18143549 -6.5 22.5 C-5.84 21.51 -5.18 20.52 -4.5 19.5 C-5.09167969 19.34144531 -5.68335938 19.18289062 -6.29296875 19.01953125 C-11.49808242 17.48262167 -15.25407195 16.10712369 -18.5 11.5 C-19.18577608 7.23294881 -19.00023114 5.29347009 -16.6875 1.625 C-11.98291308 -2.94517015 -5.65103998 -2.42187428 0 0 Z " fill="#E7E7E7" transform="translate(389.5,84.5)"/>
<path d="M0 0 C8.25 0 16.5 0 25 0 C25 1.98 25 3.96 25 6 C22.03 6 19.06 6 16 6 C16 14.58 16 23.16 16 32 C13.36 32 10.72 32 8 32 C8 23.42 8 14.84 8 6 C5.36 6 2.72 6 0 6 C0 4.02 0 2.04 0 0 Z " fill="#F0F0F0" transform="translate(335,35)"/>
<path d="M0 0 C4.77591404 0.51504955 9.59333931 0.33199733 14.390625 0.2578125 C14.885625 1.2478125 14.885625 1.2478125 15.390625 2.2578125 C14.400625 2.2578125 13.410625 2.2578125 12.390625 2.2578125 C12.390625 3.5778125 12.390625 4.8978125 12.390625 6.2578125 C13.050625 6.5878125 13.710625 6.9178125 14.390625 7.2578125 C13.070625 7.5878125 11.750625 7.9178125 10.390625 8.2578125 C10.390625 6.6078125 10.390625 4.9578125 10.390625 3.2578125 C9.730625 3.2578125 9.070625 3.2578125 8.390625 3.2578125 C8.390625 4.9078125 8.390625 6.5578125 8.390625 8.2578125 C7.4773645 8.24995728 7.4773645 8.24995728 6.5456543 8.24194336 C-8.19646123 8.02344125 -8.19646123 8.02344125 -22.87890625 9.13671875 C-23.73548828 9.19666016 -23.73548828 9.19666016 -24.609375 9.2578125 C-25.609375 8.2578125 -25.609375 8.2578125 -25.70703125 6.41015625 C-25.67447917 4.359375 -25.64192708 2.30859375 -25.609375 0.2578125 C-7.50827557 -1.02385576 -7.50827557 -1.02385576 0 0 Z M-21.609375 3.2578125 C-20.609375 5.2578125 -20.609375 5.2578125 -20.609375 5.2578125 Z " fill="#F5F5F5" transform="translate(64.609375,109.7421875)"/>
<path d="M0 0 C1.24007812 -0.01675781 2.48015625 -0.03351563 3.7578125 -0.05078125 C4.78648438 0.06910156 5.81515625 0.18898438 6.875 0.3125 C7.535 1.3025 8.195 2.2925 8.875 3.3125 C9.535 2.3225 10.195 1.3325 10.875 0.3125 C10.875 2.9525 10.875 5.5925 10.875 8.3125 C18.465 8.3125 26.055 8.3125 33.875 8.3125 C33.545 8.9725 33.215 9.6325 32.875 10.3125 C19.20833333 10.3125 5.54166667 10.3125 -8.125 10.3125 C-9.53654812 10.40752972 -10.94798616 10.50419563 -12.359375 10.6015625 C-22.60126001 11.24842828 -32.0449321 11.57537239 -42.125 9.3125 C-42.125 8.9825 -42.125 8.6525 -42.125 8.3125 C-33.215 8.3125 -24.305 8.3125 -15.125 8.3125 C-15.125 6.6625 -15.125 5.0125 -15.125 3.3125 C-14.465 3.3125 -13.805 3.3125 -13.125 3.3125 C-13.125 4.9625 -13.125 6.6125 -13.125 8.3125 C-12.135 7.9825 -11.145 7.6525 -10.125 7.3125 C-10.455 5.6625 -10.785 4.0125 -11.125 2.3125 C-7.46771489 0.0060212 -4.26128693 0.01334432 0 0 Z M-1.125 7.3125 C-0.125 9.3125 -0.125 9.3125 -0.125 9.3125 Z M4.875 7.3125 C4.545 7.9725 4.215 8.6325 3.875 9.3125 C4.535 9.3125 5.195 9.3125 5.875 9.3125 C5.545 8.6525 5.215 7.9925 4.875 7.3125 Z " fill="#D9D9D9" transform="translate(88.125,109.6875)"/>
<path d="M0 0 C15.66666667 0 31.33333333 0 47 0 C47.144375 0.61875 47.28875 1.2375 47.4375 1.875 C47.93152225 4.03258322 47.93152225 4.03258322 49 6 C44.34801235 6.74422934 39.8852613 7.12816837 35.17578125 7.1328125 C33.89896484 7.13410156 32.62214844 7.13539062 31.30664062 7.13671875 C29.98857422 7.13285156 28.67050781 7.12898438 27.3125 7.125 C25.3644043 7.13080078 25.3644043 7.13080078 23.37695312 7.13671875 C15.53323559 7.12883958 7.80331531 6.80160417 0 6 C0 4.02 0 2.04 0 0 Z " fill="#F4F4F4" transform="translate(50,120)"/>
<path d="M0 0 C1.79244141 0.01740234 1.79244141 0.01740234 3.62109375 0.03515625 C5.41740234 0.04869141 5.41740234 0.04869141 7.25 0.0625 C8.17683594 0.07410156 9.10367188 0.08570312 10.05859375 0.09765625 C10.18359375 7.84765625 10.18359375 7.84765625 9.05859375 10.09765625 C4.10859375 9.10765625 4.10859375 9.10765625 -0.94140625 8.09765625 C-0.94140625 8.75765625 -0.94140625 9.41765625 -0.94140625 10.09765625 C-2.07578125 9.93265625 -3.21015625 9.76765625 -4.37890625 9.59765625 C-7.68616219 9.20078554 -10.89488965 9.08675973 -14.21875 9.171875 C-15.35195679 9.19701172 -15.35195679 9.19701172 -16.50805664 9.22265625 C-18.03515105 9.26400328 -19.56188903 9.32233824 -21.08764648 9.3984375 C-26.4459726 9.53419873 -26.4459726 9.53419873 -29.01171875 7.2734375 C-29.94140625 5.09765625 -29.94140625 5.09765625 -28.94140625 2.09765625 C-27.81327515 2.06007202 -27.81327515 2.06007202 -26.66235352 2.02172852 C-23.27601429 1.90615111 -19.88998012 1.7832528 -16.50390625 1.66015625 C-14.72790039 1.60118164 -14.72790039 1.60118164 -12.91601562 1.54101562 C-11.79130859 1.49912109 -10.66660156 1.45722656 -9.5078125 1.4140625 C-8.46568604 1.37740479 -7.42355957 1.34074707 -6.34985352 1.30297852 C-3.30302999 1.04323411 -3.2411096 0.10760656 0 0 Z M3.05859375 1.09765625 C3.38859375 1.75765625 3.71859375 2.41765625 4.05859375 3.09765625 C4.71859375 2.43765625 5.37859375 1.77765625 6.05859375 1.09765625 C5.06859375 1.09765625 4.07859375 1.09765625 3.05859375 1.09765625 Z " fill="#EDEDED" transform="translate(125.94140625,117.90234375)"/>
<path d="M0 0 C2.64 0 5.28 0 8 0 C8 10.56 8 21.12 8 32 C5.36 32 2.72 32 0 32 C0 21.44 0 10.88 0 0 Z " fill="#DBDBDB" transform="translate(196,35)"/>
<path d="M0 0 C2.64 0 5.28 0 8 0 C8 10.23 8 20.46 8 31 C5.36 31 2.72 31 0 31 C0 20.77 0 10.54 0 0 Z " fill="#E7E7E7" transform="translate(405,83)"/>
<path d="M0 0 C2.64 0 5.28 0 8 0 C8 10.23 8 20.46 8 31 C5.36 31 2.72 31 0 31 C0 20.77 0 10.54 0 0 Z " fill="#D7D7D7" transform="translate(164,83)"/>
<path d="M0 0 C-1.28965176 1.37562854 -2.62689293 2.70766393 -4 4 C-4.66 4 -5.32 4 -6 4 C-6 4.66 -6 5.32 -6 6 C-5.34 6 -4.68 6 -4 6 C-4 6.66 -4 7.32 -4 8 C-6.4788213 8.19389096 -8.95780931 8.38040123 -11.4375 8.5625 C-12.49807617 8.64661133 -12.49807617 8.64661133 -13.58007812 8.73242188 C-15.38427837 8.86190993 -17.19231952 8.93521608 -19 9 C-20 8 -20 8 -20.09765625 6.15234375 C-20.06510417 4.1015625 -20.03255208 2.05078125 -20 0 C-17.04196565 -0.19421438 -14.08379837 -0.38066186 -11.125 -0.5625 C-10.28324219 -0.61857422 -9.44148438 -0.67464844 -8.57421875 -0.73242188 C-7.76855469 -0.78076172 -6.96289062 -0.82910156 -6.1328125 -0.87890625 C-5.01737061 -0.94960327 -5.01737061 -0.94960327 -3.87939453 -1.02172852 C-2 -1 -2 -1 0 0 Z M-16 3 C-15 5 -15 5 -15 5 Z " fill="#ECECEC" transform="translate(59,110)"/>
<path d="M0 0 C0.33 0 0.66 0 1 0 C1 39.6 1 79.2 1 120 C0.67 120 0.34 120 0 120 C0 80.4 0 40.8 0 0 Z " fill="#7F7F7F" transform="translate(155,15)"/>
<path d="M0 0 C1.79244141 0.01740234 1.79244141 0.01740234 3.62109375 0.03515625 C5.41740234 0.04869141 5.41740234 0.04869141 7.25 0.0625 C8.17683594 0.07410156 9.10367188 0.08570312 10.05859375 0.09765625 C10.18359375 7.84765625 10.18359375 7.84765625 9.05859375 10.09765625 C5.75859375 9.43765625 2.45859375 8.77765625 -0.94140625 8.09765625 C-0.94140625 8.75765625 -0.94140625 9.41765625 -0.94140625 10.09765625 C-1.93140625 10.09765625 -2.92140625 10.09765625 -3.94140625 10.09765625 C-3.94140625 9.10765625 -3.94140625 8.11765625 -3.94140625 7.09765625 C-2.95140625 7.09765625 -1.96140625 7.09765625 -0.94140625 7.09765625 C-0.61140625 5.44765625 -0.28140625 3.79765625 0.05859375 2.09765625 C-1.26140625 1.76765625 -2.58140625 1.43765625 -3.94140625 1.09765625 C-2.94140625 0.09765625 -2.94140625 0.09765625 0 0 Z M3.05859375 1.09765625 C3.38859375 1.75765625 3.71859375 2.41765625 4.05859375 3.09765625 C4.71859375 2.43765625 5.37859375 1.77765625 6.05859375 1.09765625 C5.06859375 1.09765625 4.07859375 1.09765625 3.05859375 1.09765625 Z " fill="#E4E4E4" transform="translate(125.94140625,117.90234375)"/>
<path d="M0 0 C2.64 0 5.28 0 8 0 C11 5.625 11 5.625 11 9 C9.39620659 9.05416188 7.79188594 9.09286638 6.1875 9.125 C5.29417969 9.14820312 4.40085938 9.17140625 3.48046875 9.1953125 C1 9 1 9 -2 7 C-1.34 4.69 -0.68 2.38 0 0 Z " fill="#E7E7E7" transform="translate(136,110)"/>
<path d="M0 0 C0.33 0 0.66 0 1 0 C1 2.64 1 5.28 1 8 C8.59 8 16.18 8 24 8 C23.67 8.66 23.34 9.32 23 10 C11.78 10 0.56 10 -11 10 C-10.67 9.34 -10.34 8.68 -10 8 C-7.03 8.495 -7.03 8.495 -4 9 C-4 8.34 -4 7.68 -4 7 C-3.34 7 -2.68 7 -2 7 C-1.855625 6.401875 -1.71125 5.80375 -1.5625 5.1875 C-1.1127561 3.43849596 -0.57107659 1.71322977 0 0 Z " fill="#727272" transform="translate(98,110)"/>
<path d="M0 0 C0.66 0 1.32 0 2 0 C2 1.65 2 3.3 2 5 C3.65 5 5.3 5 7 5 C7 5.66 7 6.32 7 7 C-4.58950182 7.83169592 -15.57479129 8.56484277 -27 6 C-27 5.67 -27 5.34 -27 5 C-18.09 5 -9.18 5 0 5 C0 3.35 0 1.7 0 0 Z " fill="#787878" transform="translate(73,113)"/>
<path d="M0 0 C2 3 2 3 2 5 C3.32 5 4.64 5 6 5 C6.83819158 6.62249941 7.6704116 8.24808497 8.5 9.875 C8.9640625 10.77992187 9.428125 11.68484375 9.90625 12.6171875 C11 15 11 15 11 17 C10.34 17 9.68 17 9 17 C8.67 17.66 8.34 18.32 8 19 C0 6.82608696 0 6.82608696 0 0 Z " fill="#CCCCCC" transform="translate(54,71)"/>
<path d="M0 0 C1.45823212 -0.0270043 2.91660675 -0.04639787 4.375 -0.0625 C5.18710937 -0.07410156 5.99921875 -0.08570312 6.8359375 -0.09765625 C9 0 9 0 11 1 C11 1.66 11 2.32 11 3 C10.34 3 9.68 3 9 3 C8.67 3.99 8.34 4.98 8 6 C5.36 6 2.72 6 0 6 C0 4.02 0 2.04 0 0 Z " fill="#FBFBFB" transform="translate(50,120)"/>
<path d="M0 0 C1.27310312 0.93441535 2.543388 1.87267111 3.8125 2.8125 C4.52019531 3.33457031 5.22789063 3.85664062 5.95703125 4.39453125 C7.78531393 5.83128877 9.39896688 7.31815763 11 9 C8.4375 10.375 8.4375 10.375 5 11 C2.17648019 9.46707108 -0.08043712 7.57834777 -2 5 C-2 3.68 -2 2.36 -2 1 C-1.34 0.67 -0.68 0.34 0 0 Z " fill="#DCDCDC" transform="translate(65,87)"/>
<path d="M0 0 C4.29 0 8.58 0 13 0 C13 2.64 13 5.28 13 8 C10 6 10 6 9.3125 3.875 C9.209375 3.25625 9.10625 2.6375 9 2 C9 2.66 9 3.32 9 4 C7.68 4 6.36 4 5 4 C5 3.34 5 2.68 5 2 C3.02 2 1.04 2 -1 2 C-0.67 1.34 -0.34 0.68 0 0 Z M6 1 C6.33 1.66 6.66 2.32 7 3 C7.66 2.34 8.32 1.68 9 1 C8.01 1 7.02 1 6 1 Z " fill="#919191" transform="translate(123,118)"/>
<path d="M0 0 C0.33 0 0.66 0 1 0 C1 3.3 1 6.6 1 10 C-2.96 10 -6.92 10 -11 10 C-10.67 9.34 -10.34 8.68 -10 8 C-7.03 8.495 -7.03 8.495 -4 9 C-4 8.34 -4 7.68 -4 7 C-3.34 7 -2.68 7 -2 7 C-1.855625 6.401875 -1.71125 5.80375 -1.5625 5.1875 C-1.1127561 3.43849596 -0.57107659 1.71322977 0 0 Z " fill="#7F7F7F" transform="translate(98,110)"/>
<path d="M0 0 C1.98 0 3.96 0 6 0 C6 0.66 6 1.32 6 2 C5.01 2 4.02 2 3 2 C3.33 3.32 3.66 4.64 4 6 C2.02 6.33 0.04 6.66 -2 7 C-2 5.68 -2 4.36 -2 3 C-1.34 3 -0.68 3 0 3 C0 2.01 0 1.02 0 0 Z " fill="#E4E4E4" transform="translate(75,120)"/>
<path d="M0 0 C1.32 0.33 2.64 0.66 4 1 C4 2.98 4 4.96 4 7 C1.36 7.33 -1.28 7.66 -4 8 C-4 7.34 -4 6.68 -4 6 C-3.01 6 -2.02 6 -1 6 C-1 5.34 -1 4.68 -1 4 C-0.34 4 0.32 4 1 4 C0.67 2.68 0.34 1.36 0 0 Z " fill="#FBFBFB" transform="translate(92,110)"/>
<path d="M0 0 C-2.31 2.31 -4.62 4.62 -7 7 C-7.66 6.67 -8.32 6.34 -9 6 C-9.625 3.9375 -9.625 3.9375 -10 2 C-4.5 -1.125 -4.5 -1.125 0 0 Z " fill="#C9C9C9" transform="translate(125,90)"/>
<path d="M0 0 C1.32 0 2.64 0 4 0 C4.33 1.98 4.66 3.96 5 6 C2.69 6 0.38 6 -2 6 C-2.33 4.68 -2.66 3.36 -3 2 C-2.01 2 -1.02 2 0 2 C0 1.34 0 0.68 0 0 Z " fill="#FCFCFC" transform="translate(81,120)"/>
<path d="M0 0 C0.33 1.32 0.66 2.64 1 4 C0.01 4.495 0.01 4.495 -1 5 C-3.125 4.0625 -3.125 4.0625 -5 3 C-2.25 0 -2.25 0 0 0 Z " fill="#E9E9E9" transform="translate(63,122)"/>
<path d="M0 0 C2.97 0.495 2.97 0.495 6 1 C5.01 1.495 5.01 1.495 4 2 C4 2.99 4 3.98 4 5 C3.01 5 2.02 5 1 5 C0.67 3.35 0.34 1.7 0 0 Z " fill="#EFEFEF" transform="translate(55,71)"/>
<path d="M0 0 C0.66 0 1.32 0 2 0 C2 0.66 2 1.32 2 2 C1.34 2 0.68 2 0 2 C0 1.34 0 0.68 0 0 Z " fill="#A1A1A1" transform="translate(37,24)"/>
</svg>
