<svg width="24" height="25" viewBox="0 0 24 25" fill="none" xmlns="http://www.w3.org/2000/svg">
<g id="ic:outline-search">
<path id="Vector" d="M15.5 14.9412H14.71L14.43 14.6712C15.4439 13.4952 16.0011 11.9939 16 10.4412C16 9.15559 15.6188 7.89888 14.9046 6.82996C14.1903 5.76104 13.1752 4.92792 11.9874 4.43595C10.7997 3.94398 9.49279 3.81526 8.23192 4.06606C6.97104 4.31686 5.81285 4.93593 4.90381 5.84497C3.99477 6.75401 3.3757 7.9122 3.1249 9.17308C2.87409 10.434 3.00282 11.7409 3.49479 12.9286C3.98676 14.1163 4.81988 15.1315 5.8888 15.8457C6.95772 16.5599 8.21442 16.9412 9.5 16.9412C11.11 16.9412 12.59 16.3512 13.73 15.3712L14 15.6512V16.4412L19 21.4312L20.49 19.9412L15.5 14.9412ZM9.5 14.9412C7.01 14.9412 5 12.9312 5 10.4412C5 7.95117 7.01 5.94117 9.5 5.94117C11.99 5.94117 14 7.95117 14 10.4412C14 12.9312 11.99 14.9412 9.5 14.9412Z" fill="#6B7280"/>
</g>
</svg>
